<svg width="61" height="34" viewBox="0 0 61 34" fill="none" xmlns="http://www.w3.org/2000/svg">
<mask id="mask0_1_447" style="mask-type:luminance" maskUnits="userSpaceOnUse" x="0" y="0" width="61" height="34">
<path d="M60.3798 0H0V34H60.3798V0Z" fill="white"/>
</mask>
<g mask="url(#mask0_1_447)">
<path d="M20.9143 24.7437L16.234 29.4239C14.6848 30.9544 12.5929 31.81 10.4152 31.8035C8.23743 31.797 6.15073 30.929 4.6108 29.3891C3.07087 27.8492 2.20284 25.7624 2.19627 23.5846C2.1897 21.4068 3.04513 19.3149 4.57572 17.7659L11.5664 10.7752C11.5628 10.652 11.5603 10.5286 11.5603 10.4049C11.5596 9.36378 11.6933 8.32695 11.9579 7.32007L3.0448 16.2332C1.10404 18.1879 0.0170704 20.8321 0.0219893 23.5866C0.0269081 26.341 1.12332 28.9813 3.07104 30.929C5.01878 32.8767 7.65906 33.973 10.4135 33.9778C13.168 33.9828 15.8122 32.8958 17.7668 30.955L22.447 26.2748L20.9143 24.7437Z" fill="url(#paint0_linear_1_447)"/>
<path d="M36.7847 34C35.4177 34.0023 34.0637 33.7345 32.8006 33.212C31.5375 32.6896 30.3898 31.9226 29.4239 30.9554L16.234 17.7654C14.2863 15.8123 13.1934 13.1659 13.1953 10.4075C13.1973 7.64914 14.2939 5.00431 16.2444 3.05388C18.1949 1.10346 20.8398 0.00691555 23.5983 0.00506826C26.3566 0.00322098 29.003 1.09623 30.956 3.04403L44.1459 16.234C45.6024 17.6891 46.5946 19.5437 46.9966 21.5631C47.3988 23.5824 47.1926 25.6756 46.4046 27.5778C45.6164 29.4799 44.2817 31.1054 42.5693 32.2488C40.8569 33.392 38.8438 34.0014 36.7847 34ZM30.956 29.4239C32.5059 30.9514 34.5966 31.8041 36.7727 31.7962C38.9486 31.7884 41.0332 30.9204 42.572 29.3816C44.1105 27.8431 44.9785 25.7584 44.9864 23.5825C44.9942 21.4065 44.1415 19.3155 42.614 17.7658L29.4241 4.57591C28.6606 3.80129 27.7515 3.1854 26.7488 2.76373C25.7464 2.34206 24.6703 2.12294 23.5828 2.119C22.495 2.11504 21.4174 2.32635 20.4119 2.74074C19.4064 3.15512 18.4927 3.76441 17.7236 4.53346C16.9546 5.30252 16.3453 6.21615 15.9309 7.22173C15.5165 8.22731 15.3052 9.30494 15.3092 10.3925C15.3131 11.4801 15.5322 12.5562 15.9539 13.5588C16.3756 14.5613 16.9915 15.4705 17.7661 16.234L30.956 29.4239Z" fill="url(#paint1_linear_1_447)"/>
<path d="M42.6139 3.04404L37.9337 7.7242L39.4656 9.25607L44.1458 4.57591C45.6956 3.04845 47.7864 2.1957 49.9624 2.20358C52.1383 2.21148 54.223 3.07938 55.7617 4.61807C57.3003 6.15673 58.1683 8.24133 58.1761 10.4173C58.184 12.5933 57.3313 14.6842 55.8038 16.234L48.8077 23.23C48.8431 24.3964 48.7096 25.5618 48.4116 26.6899L57.3357 17.7658C59.288 15.8136 60.3847 13.1658 60.3847 10.4049C60.3847 7.64406 59.288 4.99628 57.3357 3.04404C55.3834 1.09181 52.7357 -0.00494385 49.9747 -0.00494385C47.2139 -0.00494385 44.5662 1.09181 42.6139 3.04404Z" fill="url(#paint2_linear_1_447)"/>
</g>
<defs>
<linearGradient id="paint0_linear_1_447" x1="3.55026" y1="6.53602" x2="21.6208" y2="21.0163" gradientUnits="userSpaceOnUse">
<stop stop-color="#8D37FC"/>
<stop offset="1" stop-color="#542196"/>
</linearGradient>
<linearGradient id="paint1_linear_1_447" x1="18.5451" y1="-0.994786" x2="42.1293" y2="21.4752" gradientUnits="userSpaceOnUse">
<stop stop-color="#8D37FC"/>
<stop offset="1" stop-color="#542196"/>
</linearGradient>
<linearGradient id="paint2_linear_1_447" x1="41.4661" y1="-0.790086" x2="59.5609" y2="13.7062" gradientUnits="userSpaceOnUse">
<stop stop-color="#8D37FC"/>
<stop offset="1" stop-color="#542196"/>
</linearGradient>
</defs>
</svg>
