<?xml version="1.0" standalone="no"?>
<!DOCTYPE svg PUBLIC "-//W3C//DTD SVG 20010904//EN"
 "http://www.w3.org/TR/2001/REC-SVG-20010904/DTD/svg10.dtd">
<svg version="1.0" xmlns="http://www.w3.org/2000/svg"
 width="2024.000000pt" height="1730.000000pt" viewBox="0 0 2024.000000 1730.000000"
 preserveAspectRatio="xMidYMid meet">

<g transform="translate(0.000000,1730.000000) scale(0.100000,-0.100000)"
fill="#000000" stroke="none">
<path d="M6298 16246 c-15 -6 -39 -23 -53 -36 -57 -53 -55 -19 -55 -958 l0
-866 30 29 30 29 0 528 0 528 1880 0 1880 0 0 -3170 0 -3170 -1880 0 -1880 0
0 1988 -1 1987 -36 -39 -36 -39 5 -2256 c6 -2496 0 -2295 71 -2358 23 -20 55
-35 89 -43 39 -8 510 -9 1835 -3 l1781 8 38 31 c21 16 47 47 58 69 20 38 20
55 20 3829 l1 3791 -23 38 c-13 20 -40 50 -60 65 l-35 27 -1816 2 c-1398 1
-1822 -1 -1843 -11z"/>
</g>
</svg>
