<?xml version="1.0" encoding="UTF-8"?> <svg xmlns="http://www.w3.org/2000/svg" xmlns:xlink="http://www.w3.org/1999/xlink" version="1.1" id="Layer_1" x="0px" y="0px" viewBox="0 0 1200 700" style="enable-background:new 0 0 1200 700;" xml:space="preserve"> <style type="text/css"> .st0{opacity:9.000000e-02;fill-rule:evenodd;clip-rule:evenodd;fill:#AAAAD1;} .st1{opacity:0.185;fill-rule:evenodd;clip-rule:evenodd;fill:#AAAAD1;} .st2{opacity:0.28;fill-rule:evenodd;clip-rule:evenodd;fill:#AAAAD1;} .st3{opacity:0.375;fill-rule:evenodd;clip-rule:evenodd;fill:#AAAAD1;} .st4{opacity:0.47;fill-rule:evenodd;clip-rule:evenodd;fill:#AAAAD1;} .st5{fill-rule:evenodd;clip-rule:evenodd;fill:#596D91;} .st6{clip-path:url(#SVGID_00000178921768387153024110000013401822813326906774_);fill:url(#SVGID_00000039127820674881618770000008243393940271257013_);} .st7{opacity:0;fill-rule:evenodd;clip-rule:evenodd;fill:#759FE3;} .st8{fill-rule:evenodd;clip-rule:evenodd;fill:#AAB6FF;} .st9{opacity:0.22;} .st10{clip-path:url(#SVGID_00000065779382552512390440000004793645670300592566_);fill:url(#SVGID_00000116204386960286683940000007148545452348345996_);} .st11{clip-path:url(#SVGID_00000078036045765833415180000007729926817296750489_);fill:url(#SVGID_00000011741633515254590720000000006287330545398682_);} .st12{clip-path:url(#SVGID_00000093888987011001024410000009261515545139999627_);fill:url(#SVGID_00000088819292953710327310000018223869637441388190_);} .st13{opacity:0.42;fill-rule:evenodd;clip-rule:evenodd;fill:#7A8E9C;} .st14{opacity:0.4;fill-rule:evenodd;clip-rule:evenodd;fill:#5C6FE1;} .st15{opacity:0.5;} .st16{clip-path:url(#SVGID_00000054981871595532706970000003673591770052045988_);fill:url(#SVGID_00000154408824842467328100000017094456559249373848_);} .st17{clip-path:url(#SVGID_00000096038473778950994420000006699871622543420350_);fill:url(#SVGID_00000049188601838971813700000004186968372390809517_);} .st18{fill-rule:evenodd;clip-rule:evenodd;fill:#CCCCCC;} .st19{clip-path:url(#SVGID_00000104686488669394946080000011216297664003116719_);fill:url(#SVGID_00000165919637229928289060000001670373715250309540_);} .st20{clip-path:url(#SVGID_00000017477420707898102600000005719972970144580781_);fill:url(#SVGID_00000106127234801079122910000015903862528095119804_);} .st21{fill:#4F4A93;} .st22{opacity:0.56;} .st23{opacity:0.69;} .st24{fill:#588B94;} .st25{opacity:0.53;fill-rule:evenodd;clip-rule:evenodd;fill:#FF9D00;} .st26{fill-rule:evenodd;clip-rule:evenodd;fill:#FFE6C2;} .st27{clip-path:url(#SVGID_00000015331717370966121180000001772947793374194602_);} .st28{clip-path:url(#SVGID_00000034067023652584182110000007734208879026247608_);fill:url(#SVGID_00000162333020648138360960000016950528529271680434_);} .st29{clip-path:url(#SVGID_00000016781404445485877740000017064625879438699156_);fill:url(#SVGID_00000165922739011160972310000003614760303782016695_);} .st30{clip-path:url(#SVGID_00000181782047120698110490000010618883916315817378_);fill:url(#SVGID_00000021806595253370562750000003718793325124723620_);} .st31{fill-rule:evenodd;clip-rule:evenodd;fill:#FFFFFF;} .st32{clip-path:url(#SVGID_00000014623440417067190960000006467453106941985411_);fill:url(#SVGID_00000093148401787853551110000005593437365667561603_);} .st33{clip-path:url(#SVGID_00000158721563044609980520000016317625627596113067_);fill:url(#SVGID_00000059289155478162594880000006133185211044098990_);} .st34{clip-path:url(#SVGID_00000042731953221914612040000002185922549707899295_);fill:url(#SVGID_00000183956581540287441510000011780195415668320159_);} .st35{clip-path:url(#SVGID_00000158723231659203467400000016928675856031864995_);fill:url(#SVGID_00000065045271115571548690000014528791961259715239_);} .st36{clip-path:url(#SVGID_00000129902766049958594350000010242138133109964969_);fill:url(#SVGID_00000053546702784295249760000015086591883478209159_);} </style> <g> <path class="st0" d="M292.1,262.5c79.2-45.7,183.1-68.5,286.8-68.5c103.7,0,207.4,22.8,286.5,68.5 c79.2,45.7,118.8,105.7,118.8,165.5c0,59.8-39.6,119.8-118.8,165.5C786.3,639.1,682.5,662,578.9,662 c-103.7,0-207.5-22.8-286.8-68.6C213,547.8,173.5,487.9,173.5,428C173.5,368.2,212.9,308.1,292.1,262.5L292.1,262.5z"></path> <path class="st1" d="M329.4,284c68.9-39.7,159.3-59.6,249.4-59.6c90.2,0,180.4,19.9,249.2,59.6c68.9,39.8,103.3,91.9,103.3,144 s-34.4,104.2-103.3,144c-68.8,39.7-159.1,59.7-249.2,59.7c-90.2,0-180.5-19.9-249.4-59.7c-68.8-39.7-103.1-91.8-103.1-143.9 S260.6,323.7,329.4,284L329.4,284z"></path> <path class="st2" d="M366.8,305.6c58.6-33.8,135.4-50.7,212.1-50.7c76.7,0,153.4,16.9,211.9,50.7c58.6,33.8,87.9,78.1,87.9,122.4 c0,44.3-29.3,88.6-87.9,122.4c-58.5,33.8-135.3,50.7-211.9,50.7c-76.7,0-153.5-16.9-212.1-50.7c-58.5-33.8-87.7-78.1-87.7-122.4 C279.1,383.8,308.2,339.3,366.8,305.6L366.8,305.6z"></path> <path class="st3" d="M404.1,327.1c48.2-27.8,111.6-41.8,174.8-41.8c63.2,0,126.4,13.9,174.6,41.8c48.3,27.9,72.4,64.4,72.4,100.9 c0,36.5-24.1,73-72.4,100.9c-48.2,27.8-111.5,41.8-174.6,41.8c-63.2,0-126.5-13.9-174.8-41.8c-48.2-27.8-72.3-64.3-72.3-100.8 C331.9,391.5,355.9,355,404.1,327.1L404.1,327.1z"></path> <path class="st4" d="M441.4,348.7c37.9-21.9,87.8-32.8,137.4-32.8c49.7,0,99.4,10.9,137.3,32.8c38,21.9,56.9,50.6,56.9,79.3 c0,28.7-19,57.4-56.9,79.3c-37.9,21.9-87.6,32.9-137.3,32.9c-49.7,0-99.5-10.9-137.4-32.9c-37.9-21.9-56.8-50.6-56.8-79.3 C384.6,399.3,403.5,370.6,441.4,348.7L441.4,348.7z"></path> </g> <g> <path class="st5" d="M252,511.8l192.1,110.8c20.5,11.8,54.9,11.3,76.4-1.1L975.2,359c7.7-4.4,12.7-9.8,15.1-15.4 c6.2-14.8,6.7-26.6,0.4-41.6c-2-5.4-6.6-10.5-13.7-14.6L880.9,232c-32-18.5-64-37-96-55.4c-20.5-11.8-54.8-11.4-76.3,1.1 L481.3,308.9L253.9,440.2c-7.8,4.5-12.8,9.9-15.2,15.6c-6.4,15.3-6.1,27.8,0.4,43.2C241.4,503.7,245.7,508.1,252,511.8L252,511.8z"></path> <g> <defs> <path id="SVGID_1_" d="M252,484.3c32,18.5,64.1,36.9,96,55.4c32,18.5,64,36.9,96.1,55.4c20.5,11.8,54.9,11.3,76.4-1.1 c75.8-43.8,151.6-87.6,227.4-131.3c75.7-43.7,151.6-87.5,227.3-131.2c21.6-12.5,22.3-32.3,1.8-44.1c-32-18.5-64.1-37-96.1-55.4 c-32-18.5-64-37-96-55.4c-20.5-11.8-54.8-11.4-76.3,1.1c-75.8,43.7-151.6,87.5-227.3,131.3c-75.8,43.7-151.6,87.5-227.4,131.3 C232.4,452.6,231.5,472.5,252,484.3L252,484.3z"></path> </defs> <clipPath id="SVGID_00000114048470484148519680000008615013455587522471_"> <use xlink:href="#SVGID_1_" style="overflow:visible;"></use> </clipPath> <linearGradient id="SVGID_00000023246182914398360950000000803690999490832790_" gradientUnits="userSpaceOnUse" x1="300.7978" y1="601.5364" x2="302.1843" y2="601.5364" gradientTransform="matrix(652.3025 134.0702 -94.3245 458.9247 -139318.375 -316096.9062)"> <stop offset="0" style="stop-color:#7B8CF8"></stop> <stop offset="1" style="stop-color:#4558CC"></stop> </linearGradient> <polygon style="clip-path:url(#SVGID_00000114048470484148519680000008615013455587522471_);fill:url(#SVGID_00000023246182914398360950000000803690999490832790_);" points=" 144.3,589 966.4,758 1084.7,182.7 262.6,13.7 "></polygon> </g> <path class="st7" d="M273.5,428.9c44.5,25.6,88.9,51.2,133.3,76.9c44.4,25.6,88.9,51.3,133.3,77c69.3-40,138.6-80,207.8-120 c69.2-40,138.5-80,207.7-119.9c-44.5-25.6-88.9-51.3-133.3-76.9c-44.4-25.6-88.8-51.3-133.2-77c-69.3,40-138.6,80-207.8,120 C412.1,348.9,342.8,388.9,273.5,428.9L273.5,428.9z"></path> <polygon class="st8" points="283.6,434.7 530.1,576.9 945.6,337 699.1,194.7 "></polygon> <g class="st9"> <g> <g> <defs> <polygon id="SVGID_00000032619332676448800960000013532409551802807441_" points="530.1,576.9 283.6,434.7 945.6,337 "></polygon> </defs> <clipPath id="SVGID_00000088818156240996906920000009121788807310020742_"> <use xlink:href="#SVGID_00000032619332676448800960000013532409551802807441_" style="overflow:visible;"></use> </clipPath> <linearGradient id="SVGID_00000162338133380958936190000004469351296627280045_" gradientUnits="userSpaceOnUse" x1="300.7709" y1="601.5368" x2="302.2466" y2="601.5368" gradientTransform="matrix(498.0002 -268.8001 224.7083 416.3123 -284680.625 -168938.9375)"> <stop offset="0" style="stop-color:#AAB6FF"></stop> <stop offset="1" style="stop-color:#FEFEFE"></stop> </linearGradient> <polygon style="clip-path:url(#SVGID_00000088818156240996906920000009121788807310020742_);fill:url(#SVGID_00000162338133380958936190000004469351296627280045_);" points=" 432.9,853.6 1045.8,522.8 796.2,60.3 183.3,391.2 "></polygon> </g> </g> </g> <g> <g> <g> <defs> <path id="SVGID_00000088112223745710022330000004378346694350282381_" d="M990.7,302c0,0,10.3,15.7-0.3,41.2 c-2.9,6.9-8.9,12.1-15.2,15.7L520.5,621.5c-21.5,12.4-55.9,12.9-76.4,1.1L252,511.8c-6.3-3.6-10.6-8.1-12.9-12.8 c-6.5-15.4-6.8-27.9-0.4-43.2c-3.6,8.8-0.8,18.1,8.6,25.4c1.4,1.1,2.9,2.1,4.6,3.1l96,55.4l96,55.4 c20.5,11.8,54.9,11.3,76.4-1.1l19.6-11.3l207.8-120l207.7-119.9l19.5-11.3c2.4-1.4,4.6-2.9,6.5-4.5 C990.8,319.6,993.8,310.4,990.7,302L990.7,302z"></path> </defs> <clipPath id="SVGID_00000010270987454863687890000018243690322496459142_"> <use xlink:href="#SVGID_00000088112223745710022330000004378346694350282381_" style="overflow:visible;"></use> </clipPath> <linearGradient id="SVGID_00000003796051163396429220000001559299987688159150_" gradientUnits="userSpaceOnUse" x1="300.8295" y1="601.5178" x2="302.3054" y2="601.5178" gradientTransform="matrix(-1096.7462 -233.2986 97.1003 -456.4726 272714.875 345349.4375)"> <stop offset="0" style="stop-color:#596D91"></stop> <stop offset="0.17" style="stop-color:#778BAE"></stop> <stop offset="0.46" style="stop-color:#A1B2D8"></stop> <stop offset="0.53" style="stop-color:#FFFFFF"></stop> <stop offset="0.64" style="stop-color:#A1B2D8"></stop> <stop offset="1" style="stop-color:#596D91"></stop> </linearGradient> <polygon style="clip-path:url(#SVGID_00000010270987454863687890000018243690322496459142_);fill:url(#SVGID_00000003796051163396429220000001559299987688159150_);" points=" 1068.6,316.4 265.6,145.6 164.7,620 967.7,790.8 "></polygon> </g> </g> </g> <g> <defs> <path id="SVGID_00000072246182483527994680000004425314618843654039_" d="M271.9,494.3l-19.3-11.1c-5.4-3.1-9.3-6.9-11.6-10.8 l0-0.1c-1.7-3-2.6-6.1-2.5-9.2c0-3.1,0.9-6.3,2.7-9.4c2.6-4.5,7.1-8.8,13.4-12.4l0,0L481.9,310l0.1,0l227.3-131.3l0,0 c10.6-6.1,24.3-9.3,37.9-9.5c13.6-0.2,27.1,2.6,37.2,8.4c16.1,9.3,35.7,20.6,55.4,32l40.6,23.4l0,0l0,0l60.8,35.1l35.3,20.4 c5.5,3.2,9.4,6.9,11.7,10.9c1.7,3,2.6,6.1,2.5,9.2c0,3.1-0.9,6.3-2.7,9.3c-2.6,4.5-7,8.8-13.3,12.4l-0.1,0L747.3,461.7L519.9,593 c-10.6,6.1-24.3,9.3-38,9.5c-13.6,0.2-27.2-2.6-37.2-8.4l-31.4-18.1l-64.6-37.3l-0.1,0C328.4,526.9,299.7,510.3,271.9,494.3 L271.9,494.3z M251.4,485.4l19.3,11.1c23.4,13.5,45.9,26.5,76.7,44.3l0.1,0l64.6,37.3l31.4,18.1c10.4,6,24.4,8.9,38.5,8.7 c14-0.2,28.2-3.5,39.2-9.8l227.4-131.3l227.3-131.2l0.1,0c6.7-3.9,11.4-8.5,14.2-13.3c2-3.4,3-7,3-10.6c0-3.6-0.9-7.1-2.9-10.5 c-2.5-4.4-6.7-8.5-12.6-11.9L942.3,266L881.6,231l0,0L841,207.5c-17.2-9.9-34.6-20-55.4-32c-10.4-6-24.4-8.9-38.4-8.7 c-14,0.2-28.2,3.5-39.1,9.8l0,0l0,0L480.7,307.8l-0.1,0L253.3,439.1l0,0l0,0c-6.7,3.9-11.5,8.5-14.3,13.4c-2,3.4-3,7-3,10.6 c0,3.6,0.9,7.1,2.9,10.5l0,0.1C241.4,478,245.5,482,251.4,485.4z"></path> </defs> <clipPath id="SVGID_00000155116487881019157320000013745377086295954080_"> <use xlink:href="#SVGID_00000072246182483527994680000004425314618843654039_" style="overflow:visible;"></use> </clipPath> <linearGradient id="SVGID_00000066498033364725876460000010854020219087164034_" gradientUnits="userSpaceOnUse" x1="300.7462" y1="601.5428" x2="302.2213" y2="601.5428" gradientTransform="matrix(-627.4564 -4.8175 2.3303 -303.5053 188416.5938 184409.9688)"> <stop offset="0" style="stop-color:#778BAE"></stop> <stop offset="1" style="stop-color:#FEFEFE"></stop> </linearGradient> <polygon style="clip-path:url(#SVGID_00000155116487881019157320000013745377086295954080_);fill:url(#SVGID_00000066498033364725876460000010854020219087164034_);" points=" 996.5,166.6 235.9,160.8 232.5,605.1 993.1,610.9 "></polygon> </g> <polygon class="st13" points="351.5,552.1 322.4,535.4 315.3,540 356.4,563.8 "></polygon> <path class="st14" d="M814.4,236.8c19.5,11.2,38.9,22.5,58.4,33.7c4.1,2.4,11.1,2.3,15.4-0.2l0,0c4.4-2.5,4.5-6.5,0.4-8.9 c-19.5-11.3-38.9-22.5-58.4-33.7c-4.2-2.4-11.1-2.3-15.5,0.2l0,0C810.3,230.4,810.2,234.4,814.4,236.8L814.4,236.8z"></path> </g> <g> <g class="st15"> <g> <g> <defs> <path id="SVGID_00000077315606957462806810000011673916074360010121_" d="M686.3,226.7l208.1,120.1 c-81,46.8-171.9,99.2-252.9,146c-66-37.8-138.2-79.5-208-120.1C514.4,325.9,605.3,273.4,686.3,226.7L686.3,226.7z"></path> </defs> <clipPath id="SVGID_00000121254170732734158040000003646092021960055699_"> <use xlink:href="#SVGID_00000077315606957462806810000011673916074360010121_" style="overflow:visible;"></use> </clipPath> <linearGradient id="SVGID_00000085214214926277484600000009837680555421169325_" gradientUnits="userSpaceOnUse" x1="301.2251" y1="601.4166" x2="301.9034" y2="601.4166" gradientTransform="matrix(235.1841 -323.6361 350.0262 254.3616 -280770.9062 -55020.2695)"> <stop offset="0" style="stop-color:#2E84F5"></stop> <stop offset="1" style="stop-color:#FFFFFF"></stop> </linearGradient> <polygon style="clip-path:url(#SVGID_00000121254170732734158040000003646092021960055699_);fill:url(#SVGID_00000085214214926277484600000009837680555421169325_);" points=" 735.1,712 1020.9,318.6 592.7,7.5 306.9,400.8 "></polygon> </g> </g> </g> </g> <g> <g> <g> <defs> <path id="SVGID_00000142154247830559225880000016321201207430614434_" d="M898.1,338.6c0.3,0.2,0.6,0.4,0.9,0.6 C898.7,339.1,898.4,338.9,898.1,338.6L898.1,338.6z M897.2,337.9c0.3,0.2,0.6,0.5,0.9,0.7C897.8,338.4,897.5,338.2,897.2,337.9z M883.1,231.6v69.8c0,17,5.3,29.5,14.1,36.5c-0.3-0.2-0.5-0.4-0.8-0.6l3.6,2.7h0h0l0,0l0,0l-137.7-79.5v-1.8 c0-5.9,0.6-12.1,1.9-18.3c6.7-33.9,30.3-69.9,58.4-86.1c0.1-0.1,0.2-0.1,0.3-0.1c16.2-9.4,31-10.4,41.8-4.6l1.5,0.9c0,0,0,0,0,0 c10.5,6.5,16.9,19.8,16.9,38.5V231.6z"></path> </defs> <clipPath id="SVGID_00000079479496862652648380000004122021544467020199_"> <use xlink:href="#SVGID_00000142154247830559225880000016321201207430614434_" style="overflow:visible;"></use> </clipPath> <linearGradient id="SVGID_00000019672112061090515320000015129780182577171347_" gradientUnits="userSpaceOnUse" x1="301.17" y1="601.0956" x2="302.4384" y2="601.0956" gradientTransform="matrix(185.6699 61.4639 -58.8747 177.8484 -19779.0059 -125200.0781)"> <stop offset="0" style="stop-color:#B3B3B3"></stop> <stop offset="1" style="stop-color:#FEFEFE"></stop> </linearGradient> <polygon style="clip-path:url(#SVGID_00000079479496862652648380000004122021544467020199_);fill:url(#SVGID_00000019672112061090515320000015129780182577171347_);" points=" 703.8,320.5 886.4,381 958.6,163.1 775.9,102.6 "></polygon> </g> <path class="st18" d="M614.5,34.1c-33.2,19.2-60.3,66.1-60.3,104.4v3.4v87.9c0,38.3-27.1,85.2-60.3,104.4 c-24.1,13.9-48.2,27.8-72.3,41.8v3.4l208,120.1c24.1-13.9,48.2-27.8,72.3-41.8c33.2-19.2,60.3-66.1,60.3-104.4V350v-87.9 c0-38.4,27-85.3,60.3-104.4c0.1-0.1,0.2-0.1,0.3-0.1c16.2-9.4,31-10.4,41.8-4.6l-11.9-6.9c4.3,0.4,8.3,1.5,11.9,3.5L658.1,30.3 c-11-6.8-26.3-6.1-43.3,3.7C614.7,34,614.6,34.1,614.5,34.1L614.5,34.1z"></path> <g> <defs> <path id="SVGID_00000050630617528233505630000012232056157727607700_" d="M822.6,154.2c-33.2,19.2-60.3,66.1-60.3,104.4V350 c0,38.3-27.1,85.2-60.3,104.4c-24.1,13.9-48.2,27.8-72.3,41.8L421.7,376c24.1-13.9,48.2-27.8,72.3-41.8 c33.2-19.2,60.3-66.1,60.3-104.4v-91.4c0-38.4,27-85.3,60.3-104.4c0.1-0.1,0.2-0.1,0.3-0.1c17-9.8,32.4-10.5,43.3-3.7 l206.5,119.2c-10.8-5.8-25.6-4.8-41.8,4.6C822.7,154.2,822.7,154.2,822.6,154.2L822.6,154.2z"></path> </defs> <clipPath id="SVGID_00000067217841728633048890000017511347053739429272_"> <use xlink:href="#SVGID_00000050630617528233505630000012232056157727607700_" style="overflow:visible;"></use> </clipPath> <linearGradient id="SVGID_00000163764092064909715300000015616051653126292894_" gradientUnits="userSpaceOnUse" x1="301.3658" y1="601.4899" x2="301.8969" y2="601.4899" gradientTransform="matrix(174.0531 -406.1241 384.7013 164.8719 -283243.375 23573.7637)"> <stop offset="0" style="stop-color:#FFFFFF"></stop> <stop offset="0.45" style="stop-color:#CCCCCC"></stop> <stop offset="1" style="stop-color:#EDEDED"></stop> </linearGradient> <polygon style="clip-path:url(#SVGID_00000067217841728633048890000017511347053739429272_);fill:url(#SVGID_00000163764092064909715300000015616051653126292894_);" points=" 795.9,656.5 1035.8,96.8 490.4,-136.9 250.5,422.8 "></polygon> </g> <g> <defs> <path id="SVGID_00000023246406255099500450000007698521345060872838_" d="M747.2,410.8c-11.2,19.3-26.6,36.2-43.7,46.1l-0.2,0.1 l-30.2,17.5l-43.4,25l0-3.4l72.3-41.8c33.2-19.2,60.3-66.1,60.3-104.4v-91.4c0-38.4,27-85.3,60.3-104.4c0.1-0.1,0.2-0.1,0.3-0.1 c33.2-19.2,60.2-3.5,60.3,34.8l0,110.2c0,18.4,6.8,31.5,17.4,37.8l0.9,0.5l-1.5,2.5l-1-0.6c-5.9-3.5-10.7-8.9-13.9-16 c-3.1-6.7-4.8-14.8-4.9-24.2l0-110.2c0-10.6-2.1-19.3-5.9-25.8c-2.7-4.6-6.1-8.2-10.3-10.6c-4.1-2.4-8.9-3.6-14.3-3.6 c-7.6,0-16.2,2.5-25.3,7.8l-0.3,0.2l-0.1,0c-16.1,9.3-30.7,25.4-41.3,43.8c-10.7,18.5-17.3,39.3-17.3,58V350 C765.3,369.7,758.3,391.5,747.2,410.8L747.2,410.8z"></path> </defs> <clipPath id="SVGID_00000032647024223077103920000004559050628430422156_"> <use xlink:href="#SVGID_00000023246406255099500450000007698521345060872838_" style="overflow:visible;"></use> </clipPath> <linearGradient id="SVGID_00000111871828341980270170000004107826933896776077_" gradientUnits="userSpaceOnUse" x1="300.7338" y1="601.6105" x2="302.1205" y2="601.6105" gradientTransform="matrix(-485.5034 328.2195 -315.7348 -467.0359 337017.9062 182384.3281)"> <stop offset="0" style="stop-color:#B3B3B3"></stop> <stop offset="1" style="stop-color:#FFFFFF"></stop> </linearGradient> <polygon style="clip-path:url(#SVGID_00000032647024223077103920000004559050628430422156_);fill:url(#SVGID_00000111871828341980270170000004107826933896776077_);" points=" 816.2,8.9 460.5,249.3 715,625.6 1070.6,385.2 "></polygon> </g> </g> <g> <path class="st21" d="M774.4,156.8c1,0.6,2.3-0.1,3.2-1.2c2.4-3,5.2-5.8,8.2-8.4c3.1-2.6,6.5-5,10.2-7.3c1.3-0.8,1.9-1.8,1-2.3 c-0.8-0.5-2.7-0.3-4.1,0.5c-2.4,1.4-4.6,2.9-6.7,4.5c-2.1,1.6-4.1,3.3-6,5c1.4-2.7,2.6-4.9,4-6.9c1.3-2,2.8-3.9,4.7-6.2 c0.6-0.7,0.6-1.3,0-1.7c-0.9-0.5-2.7-0.3-4.2,0.6c-3.6,2.3-7.1,4.7-10.2,7.3c-3,2.6-5.8,5.4-8.2,8.4c-0.9,1-0.8,2.4,0,2.9 c0.8,0.5,2.2-0.1,3.1-1.1c1.5-1.9,3.2-3.7,5-5.4c1.8-1.7,3.8-3.4,5.8-5c-1.3,2.2-2.6,4.5-3.7,6.9c-1.1,2.4-2,4.8-2.7,7.4 C773.4,155.6,773.8,156.4,774.4,156.8L774.4,156.8z M772.4,129.1c2,1.1,0.7,2.7-2.1,4.8c-2.2,1.6-4.2,3.4-6.2,5.2 c-2.3,2.2-4.6,3.4-6.4,2.4c-1.8-1-1.2-3.2,1.1-5.4c1.9-1.9,4-3.6,6.2-5.2C767.8,128.9,770.4,128,772.4,129.1z M754.7,145.5 c1.9,1.1,4,0.9,6,0.1c2.1-0.9,4.4-2.6,6.5-4.6c1.9-1.8,4-3.6,6.2-5.2c2.4-1.8,4.3-3.6,5.2-5.2c0.9-1.6,0.7-3.1-1.4-4.2 c-2-1.2-4.6-1.4-7.4-0.8c-2.7,0.6-5.4,1.9-7.8,3.7c-2.2,1.7-4.2,3.4-6.2,5.2c-2.1,2-3.4,4.2-3.6,6.2 C752,142.6,752.8,144.4,754.7,145.5z M743,135.9c-0.8,1-0.8,2.4,0,2.9c0.8,0.5,2.2-0.1,3-1.1c2.5-3,5.3-5.8,8.3-8.4 c3.1-2.7,6.6-5.1,10.2-7.3c1.3-0.8,1.8-1.8,0.9-2.3c-0.9-0.5-2.7-0.3-4,0.5c-3.7,2.3-7.1,4.7-10.2,7.3 C748.3,130.1,745.6,133,743,135.9z M732.3,129.7c-0.8,1-0.8,2.4,0,2.9c0.9,0.5,2.2-0.1,3-1.1c2.2-2.6,4.6-5.1,7.2-7.5 c2.7-2.4,5.6-4.5,8.7-6.6c0.8,0.4,1.5,0.9,2.3,1.3c0.8,0.5,2.6,0.2,3.9-0.6c1.4-0.8,1.7-1.9,0.9-2.3c-2.6-1.5-5.2-2.9-7.7-4.4 c-0.8-0.5-2.9-0.1-4,0.5c-1.3,0.8-1.7,1.8-0.8,2.3c0.8,0.4,1.5,0.9,2.3,1.3c-3.1,2.1-6,4.3-8.7,6.6 C736.8,124.6,734.5,127.1,732.3,129.7z M733.8,107.4c0.6,0.4,1.2,0.7,1.9,1.1c2,1.2,0.6,2.7-1.2,4c-2.4,1.8-4.3,2.2-5.9,1.2 c-0.6-0.4-1.3-0.7-1.9-1.1C729,110.9,731.3,109.1,733.8,107.4z M724.8,117.2c3.4,1.9,7.9,0.8,12.8-2.9c4.1-3.1,7-6.3,2.9-8.7 c-1.1-0.6-2.1-1.2-3.2-1.8c-0.9-0.5-3-0.3-4.5,0.6c-3.5,2.2-6.8,4.6-9.8,7.2c-2.9,2.5-5.6,5.3-8,8.2c-0.9,1.1-0.8,2.5,0,2.9 c0.8,0.5,2.2-0.1,3.1-1.2c1.5-1.9,3.2-3.6,4.9-5.3C723.5,116.5,724.1,116.8,724.8,117.2z M707.1,115.2c-0.8,1.1-0.8,2.4,0,2.9 c0.8,0.5,2.2-0.1,3-1.1c2.5-3,5.3-5.8,8.3-8.4c3.1-2.7,6.5-5.1,10.2-7.3c1.3-0.8,1.8-1.8,1-2.3c-0.9-0.5-2.8-0.3-4,0.5 c-3.7,2.3-7.1,4.7-10.2,7.3C712.3,109.4,709.6,112.3,707.1,115.2z M712.5,98.9c-1.8,1.3-3.5,1.6-5,0.7c-0.8-0.5-1.6-0.9-2.4-1.4 c1.8-1.4,3.7-2.8,5.7-4.1c0.8,0.4,1.5,0.9,2.3,1.3C715,96.6,713.9,97.9,712.5,98.9z M715.6,100.7c3.6-2.6,6.4-5.7,2.3-8.1 c-1.3-0.7-2.5-1.5-3.8-2.2c-0.9-0.5-3-0.3-4.4,0.7c-3.5,2.2-6.8,4.6-9.8,7.2c-2.9,2.5-5.6,5.3-8,8.2c-0.9,1.1-0.9,2.4-0.1,2.9 c0.8,0.5,2.2-0.1,3.1-1.1c1.9-2.3,4-4.5,6.2-6.6c0.5,0.3,1,0.6,1.5,0.8c-0.7,1.6-1.3,3.1-1.9,4.7c-0.6,1.6-1.1,3.3-1.5,5 c-0.2,0.8,0,1.4,0.6,1.7c1,0.6,3.2-0.5,3.8-2.4c0.8-2.6,1.7-5.1,2.7-7.6C709.1,104.3,712.2,103.1,715.6,100.7z M692.3,89.2 c2.9-2.1,5.5-3,7.5-1.9c0.7,0.4,1,0.9,0.9,1.6c0,0.1,0,0.2,0,0.3c0,0.4-0.1,0.6,0.4,0.9c0.8,0.5,2.4,0.1,3.6-0.6 c2.2-1.3,1.9-3.7-0.4-5c-1.9-1.1-4.4-1.4-7-0.8c-2.6,0.5-5.4,1.8-8,3.8c-2.2,1.7-4.2,3.4-6.1,5.3c-2.3,2.2-3.6,4.4-3.8,6.3 c-0.2,1.9,0.6,3.5,2.5,4.6c2.3,1.3,5.6,1.1,7.1-0.7c0.8-1,1-2.1,0.2-2.6c-0.5-0.3-0.9-0.2-1.3-0.1c-0.1,0-0.3,0-0.4,0.1 c-1,0.2-1.7,0.1-2.5-0.4c-2-1.1-1.2-3.1,1.2-5.5C688.1,92.6,690.2,90.9,692.3,89.2z M674.8,90.1c-1.5,1.6-3.1,2-4.6,1.2 c-0.9-0.5-1.3-1.3-1.6-1.8c-0.3-0.4-0.5-0.8-0.8-1c-0.8-0.5-2.3,0.1-3.1,1c-1.7,2.1,0.7,4.7,2.3,5.6c3.1,1.8,7.2,0.5,11-3.4 c4-4.1,2.9-6.1,1.8-8.2c-0.3-0.4-0.6-0.9-0.7-1.6c-0.1-0.4-0.2-1.1,1.3-2.2c2.1-1.5,3.7-1.3,4.8-0.6c0.8,0.4,1,0.9,1.1,1.3 c0.2,0.3,0.3,0.6,0.7,0.9c1,0.5,2.6,0.1,3.8-0.6c2.8-1.7,0.4-3.8-0.9-4.5c-3.1-1.8-8.3-1.4-12.7,1.9c-4.9,3.5-3.4,5.9-2.2,8 c0.3,0.6,0.6,1.1,0.8,1.7C676,88.1,676.1,88.8,674.8,90.1z M660.6,88.1c0.9-1,0.9-2.3,0.1-2.7c-1.6-0.9-3.2-1.8-4.8-2.7 c1.5-1.6,3-3.1,4.6-4.6c1.4,0.8,2.7,1.6,4.1,2.4c0.9,0.5,2.3,0.1,3.5-0.9c1.1-1,1.2-2.1,0.5-2.5c-1.4-0.8-2.8-1.6-4.1-2.4 c1.8-1.4,3.6-2.7,5.5-4c1.5,0.9,3,1.7,4.5,2.6c0.8,0.5,2.5,0.2,3.8-0.6c1.3-0.8,1.8-1.8,1-2.3c-2-1.1-4-2.3-5.9-3.4 c-0.9-0.5-3.1-0.2-4.4,0.6c-3.4,2.2-6.6,4.5-9.5,7c-2.9,2.5-5.5,5.1-7.9,7.9c-1.4,1.6-0.8,2.7,0.3,3.3c1.9,1.1,3.8,2.2,5.8,3.3 C658.3,89.7,659.7,89.2,660.6,88.1z M656.4,66.7c-1.7,1.3-3.4,1.6-5,0.7c-0.8-0.5-1.6-0.9-2.5-1.4c1.8-1.4,3.7-2.8,5.6-4.1 c0.8,0.4,1.5,0.9,2.3,1.3C658.9,64.4,657.8,65.6,656.4,66.7z M659.4,68.5c3.6-2.6,6.4-5.7,2.3-8.1c-1.3-0.7-2.5-1.5-3.8-2.2 c-0.9-0.5-3-0.3-4.4,0.6c-3.5,2.2-6.8,4.6-9.7,7.2c-2.9,2.5-5.6,5.3-8,8.2c-0.9,1.1-0.9,2.4-0.1,2.9c0.8,0.5,2.3-0.1,3.1-1.1 c1.9-2.3,4-4.5,6.2-6.6c0.5,0.3,1,0.6,1.5,0.9c-0.7,1.6-1.3,3.1-1.9,4.7c-0.6,1.6-1.1,3.3-1.5,5c-0.2,0.8,0,1.4,0.5,1.7 c1,0.6,3.3-0.4,3.9-2.4c0.8-2.6,1.7-5.1,2.7-7.5C653,72.1,656.1,70.9,659.4,68.5z M640.1,53.6c0.6,0.4,1.3,0.7,1.9,1.1 c2.1,1.2,0.6,2.7-1.2,4c-2.4,1.8-4.3,2.2-5.9,1.3c-0.6-0.4-1.3-0.7-1.9-1.1C635.3,57.1,637.6,55.3,640.1,53.6z M631.1,63.4 c3.4,1.9,7.9,0.8,12.7-2.9c4.1-3.1,7-6.3,2.9-8.7c-1.1-0.6-2.1-1.2-3.2-1.8c-0.9-0.5-3-0.3-4.5,0.6c-3.5,2.2-6.7,4.6-9.7,7.2 c-2.9,2.5-5.6,5.3-8,8.2c-0.9,1.1-0.9,2.4-0.1,2.9c0.8,0.5,2.2-0.1,3.1-1.1c1.6-1.8,3.2-3.6,4.9-5.3 C629.8,62.7,630.5,63.1,631.1,63.4z"></path> <g class="st22"> <path class="st21" d="M740.8,172.9c-0.4,0-0.8-0.1-1.1-0.3L602.1,93.1c-1.1-0.6-1.4-2-0.8-3c0.6-1.1,2-1.4,3-0.8L742,168.8 c1.1,0.6,1.4,2,0.8,3C742.4,172.5,741.6,172.9,740.8,172.9z"></path> </g> <g class="st22"> <path class="st21" d="M713,181.4c-0.4,0-0.8-0.1-1.1-0.3L592.1,112c-1.1-0.6-1.4-2-0.8-3c0.6-1.1,2-1.4,3-0.8l119.8,69.1 c1.1,0.6,1.4,2,0.8,3C714.5,181,713.8,181.4,713,181.4z"></path> </g> <g class="st22"> <path class="st21" d="M729.1,215.3c-0.4,0-0.8-0.1-1.1-0.3l-143-82.5c-1.1-0.6-1.4-2-0.8-3c0.6-1.1,2-1.4,3-0.8l143,82.5 c1.1,0.6,1.4,2,0.8,3C730.6,214.9,729.9,215.3,729.1,215.3z"></path> </g> <g class="st22"> <path class="st21" d="M691.8,218.4c-0.4,0-0.8-0.1-1.1-0.3l-108.9-62.9c-1.1-0.6-1.4-2-0.8-3c0.6-1.1,2-1.4,3-0.8l108.9,62.9 c1.1,0.6,1.4,2,0.8,3C693.3,218,692.5,218.4,691.8,218.4z"></path> </g> <g class="st22"> <path class="st21" d="M692.9,243.6c-0.4,0-0.8-0.1-1.1-0.3l-110.1-63.5c-1.1-0.6-1.4-2-0.8-3c0.6-1.1,2-1.4,3-0.8L694,239.5 c1.1,0.6,1.4,2,0.8,3C694.4,243.2,693.7,243.6,692.9,243.6z"></path> </g> <g class="st22"> <path class="st21" d="M717.5,282.4c-0.4,0-0.8-0.1-1.1-0.3l-134.7-77.7c-1.1-0.6-1.4-2-0.8-3c0.6-1.1,2-1.4,3-0.8l134.7,77.7 c1.1,0.6,1.4,2,0.8,3C719,282,718.3,282.4,717.5,282.4z"></path> </g> <g class="st22"> <path class="st21" d="M691.8,292.2c-0.4,0-0.8-0.1-1.1-0.3L581.8,229c-1.1-0.6-1.4-2-0.8-3c0.6-1.1,2-1.4,3-0.8L692.9,288 c1.1,0.6,1.4,2,0.8,3C693.3,291.8,692.5,292.2,691.8,292.2z"></path> </g> <g class="st22"> <path class="st21" d="M716.5,331c-0.4,0-0.8-0.1-1.1-0.3l-133.8-77.2c-1.1-0.6-1.4-2-0.8-3c0.6-1.1,2-1.4,3-0.8l133.8,77.2 c1.1,0.6,1.4,2,0.8,3C718,330.6,717.2,331,716.5,331z"></path> </g> <g class="st22"> <path class="st21" d="M698,345c-0.4,0-0.8-0.1-1.1-0.3l-119.2-68.8c-1.1-0.6-1.4-2-0.8-3c0.6-1.1,2-1.4,3-0.8l119.2,68.8 c1.1,0.6,1.4,2,0.8,3C699.5,344.6,698.8,345,698,345z"></path> </g> <g class="st22"> <path class="st21" d="M707.8,375.2c-0.4,0-0.8-0.1-1.1-0.3l-136.6-78.8c-1.1-0.6-1.4-2-0.8-3c0.6-1.1,2-1.4,3-0.8l136.6,78.8 c1.1,0.6,1.4,2,0.8,3C709.3,374.8,708.6,375.2,707.8,375.2z"></path> </g> <g class="st22"> <path class="st21" d="M683,385.5c-0.4,0-0.8-0.1-1.1-0.3l-122.1-70.5c-1.1-0.6-1.4-2-0.8-3c0.6-1.1,2-1.4,3-0.8l122.1,70.5 c1.1,0.6,1.4,2,0.8,3C684.5,385.1,683.8,385.5,683,385.5z"></path> </g> <g class="st23"> <path class="st24" d="M508.3,397.9c-1.2,0-2.2-1-2.2-2.2c0-3.2,0-6.4,0-9.6h-18.1c-1.2,0-2.2-1-2.2-2.2s1-2.2,2.2-2.2H506 c0-4.8,0-9.6,0-14.4l-8.1-4.7l-15.1,8.7c-1.1,0.6-2.4,0.2-3-0.8c-0.6-1.1-0.2-2.4,0.8-3l16.1-9.3c0,0,0.1,0,0.1-0.1l23.2-13.4 c0.7-0.4,1.5-0.4,2.2,0l11.6,6.7c3.8,2.2,5.9,5.3,5.9,8.6c0,3.4-2.1,6.4-5.9,8.6c-6.4,3.7-16.4,4-23.4,1c0,4,0,8,0,12h18.2 c1.2,0,2.2,1,2.2,2.2s-1,2.2-2.2,2.2h-18.2c0,3.2,0,6.4,0,9.5C510.5,396.9,509.5,397.9,508.3,397.9 C508.3,397.9,508.3,397.9,508.3,397.9z M509.6,364.3l1.1,0.6c5.7,3.3,15.3,3.3,21,0c2.3-1.4,3.7-3.1,3.7-4.8 c0-1.7-1.3-3.4-3.7-4.8l-10.5-6.1l-18.8,10.9l6.7,3.9C509.3,364.1,509.5,364.2,509.6,364.3z"></path> </g> <g class="st15"> <path class="st24" d="M608.1,444c-12.9,0-24.9-2.9-34.1-8.2c-9.3-5.4-14.4-12.6-14.4-20.3c0-7.7,5.1-14.9,14.5-20.3 c9.1-5.3,21.2-8.2,34-8.2c13,0,25.1,2.9,34.2,8.2c9.3,5.4,14.4,12.6,14.4,20.3c0,7.7-5.1,14.9-14.4,20.3 C633.1,441.1,621,444,608.1,444L608.1,444z M608.1,389.1c-12.5,0-24.3,2.8-33.1,7.9c-8.7,5-13.5,11.6-13.5,18.5 c0,7,4.8,13.5,13.4,18.5c8.8,5.1,20.5,7.9,33.1,7.9v1l0-1c12.5,0,24.3-2.8,33.1-7.9c8.6-5,13.4-11.6,13.4-18.5 c0-7-4.8-13.5-13.4-18.5C632.4,391.9,620.7,389.1,608.1,389.1z M608.1,433.7c-8.1,0-15.7-1.8-21.4-5.1c-5.9-3.4-9.2-8-9.2-13 c0-5,3.3-9.6,9.2-13c5.7-3.3,13.4-5.1,21.4-5.1c8.1,0,15.7,1.8,21.5,5.2c5.9,3.4,9.2,8,9.2,13s-3.3,9.5-9.2,13 C623.8,431.8,616.2,433.7,608.1,433.7z M608.1,399.4c-7.7,0-15,1.7-20.4,4.9c-5.3,3.1-8.2,7.1-8.2,11.3c0,4.2,2.9,8.2,8.2,11.2 c5.4,3.1,12.7,4.9,20.4,4.9c7.8,0,15-1.7,20.5-4.9c5.3-3,8.2-7,8.2-11.2c0-4.2-2.9-8.2-8.2-11.2 C623.1,401.2,615.8,399.4,608.1,399.4z"></path> </g> <g> <path class="st21" d="M663.9,462c-0.1,0-0.2,0-0.3,0c-4-1.2-11.7-3.1-19.1-4.9c-19.4-4.7-20.2-5.1-20.5-6.1c-0.1-0.3,0-0.7,0.2-1 c1.1-1.2,2.2-3,1.7-4.2c-1.1-2.7-9.2-3.3-14.5-3.7c-5.5-0.4-8-0.6-8.6-2c-0.1-0.3-0.3-0.9,0.3-1.7c0.1-0.2,0.3-0.3,0.6-0.4 c4.5-1,5.5-1.9,5.8-2.1c-1.3-1.7-14.2-3.7-20.4-3.7c-4.9,0-6.5-0.4-6.7-1.7c-0.2-1.5,1.6-2.2,6.1-3.8c2-0.7,4.2-1.5,4.9-2.1 c0,0,0,0,0,0c-1.6,0.1-4.6,0.6-6.7,0.9c-4.4,0.8-7,1.2-8.1,0.7c-0.4-0.1-0.7-0.6-0.7-1c0-1,0.7-1.3,6-3.7 c4.1-1.9,10.4-4.7,16.4-8.2c0.1,0,0.1-0.1,0.2-0.1c-3.7-2.8-45.1-6.3-59.8,1.3c-0.5,0.3-1.1,0.1-1.4-0.4 c-0.3-0.5-0.1-1.1,0.4-1.4c14.9-7.6,60-5.1,62.7-0.2c0.2,0.4,0.7,1.6-1.1,2.6c-6.1,3.5-12.4,6.4-16.5,8.3 c-0.6,0.3-1.1,0.5-1.6,0.7c1.1-0.2,2.3-0.4,3.3-0.5c6.8-1.1,9-1.4,9.6,0c0.5,1.2-0.8,2.2-1.4,2.6c-1,0.7-3.1,1.5-5.4,2.4 c-1.2,0.4-2.7,1-3.7,1.4c0.7,0.1,1.9,0.2,3.7,0.2c0.2,0,21.9,1,22.4,5.6c0.2,1.6-1.5,2.7-5.6,3.8c1.5,0.3,3.8,0.4,5.7,0.6 c6.8,0.5,14.6,1.1,16.2,4.9c0.6,1.5,0.2,3.3-1.2,5.3c2.8,1,11.4,3.1,18.5,4.8c7.4,1.8,15.1,3.7,19.2,4.9c0.5,0.2,0.8,0.7,0.7,1.3 C664.8,461.7,664.4,462,663.9,462z"></path> </g> </g> </g> <g> <g> <path class="st25" d="M440.3,428.5c-18.2-10-41.7-15-65.1-15c-23.4,0-46.9,5-65.1,15c-16.6,9.6-24.9,21.8-24.9,34.1 c0,8,3.6,16.1,10.7,23.3c4.1,4.2,9.3,8.1,15.7,11.6c17.6,9.7,40.6,14.5,63.6,14.5c23,0,46.1-4.8,63.7-14.5 c6.4-3.5,11.6-7.4,15.7-11.6c7.1-7.3,10.6-15.3,10.6-23.3C465.2,450.4,456.9,438.1,440.3,428.5L440.3,428.5z"></path> <g> <path class="st26" d="M331.5,478.9L331.5,478.9c-4.6,4.9-12.3,5.1-17.2,0.5l-26.1-24.6c-4.9-4.6-5.1-12.3-0.5-17.2l0,0 c4.6-4.9,12.3-5.1,17.2-0.5l26.1,24.6C335.8,466.3,336,474.1,331.5,478.9L331.5,478.9z"></path> <path class="st26" d="M373.2,491.6L373.2,491.6c-1.2,6.6-7.6,10.9-14.2,9.7l-35.2-6.7c-6.6-1.2-10.9-7.6-9.7-14.2l0,0 c1.2-6.6,7.6-10.9,14.2-9.7l35.2,6.7C370.1,478.7,374.5,485,373.2,491.6L373.2,491.6z"></path> <path class="st26" d="M347.4,406.5L347.4,406.5c-1.2,6.6-7.6,10.9-14.2,9.7l-35.2-6.7c-6.6-1.2-10.9-7.6-9.7-14.2v0 c1.2-6.6,7.6-10.9,14.2-9.7l35.2,6.7C344.3,393.5,348.6,399.9,347.4,406.5L347.4,406.5z"></path> <path class="st26" d="M368.7,375.3L368.7,375.3c3.7,5.6,2.1,13.2-3.5,16.8l-30,19.7c-5.6,3.7-13.2,2.1-16.8-3.5l0,0 c-3.7-5.6-2.1-13.2,3.5-16.8l30-19.7C357.5,368.1,365.1,369.7,368.7,375.3L368.7,375.3z"></path> <path class="st26" d="M339.9,392.9L339.9,392.9c4.5,4.9,4.2,12.6-0.7,17.2l-26.4,24.3c-4.9,4.5-12.6,4.2-17.2-0.7 c-4.5-4.9-4.2-12.6,0.7-17.2l26.4-24.3C327.7,387.7,335.4,388,339.9,392.9L339.9,392.9z"></path> <path class="st26" d="M346.8,453.1L346.8,453.1c1.9,6.4-1.8,13.2-8.2,15.1l-34.4,10.1c-6.4,1.9-13.2-1.8-15.1-8.2l0,0 c-1.9-6.4,1.8-13.2,8.2-15.1l34.4-10.1C338.1,442.9,344.9,446.6,346.8,453.1L346.8,453.1z"></path> <path class="st26" d="M375.9,466.8L375.9,466.8c-5.6,3.6-13.2,2-16.8-3.7L339.7,433c-3.6-5.6-2-13.2,3.7-16.8l0,0 c5.6-3.6,13.2-2,16.8,3.7l19.4,30.2C383.2,455.7,381.5,463.2,375.9,466.8L375.9,466.8z"></path> <path class="st26" d="M377.1,375.2L377.1,375.2c6.5-1.7,13.2,2.1,14.9,8.6l9.3,34.6c1.7,6.5-2.1,13.2-8.6,14.9l0,0 c-6.5,1.7-13.2-2.1-14.9-8.6l-9.3-34.6C366.7,383.6,370.6,376.9,377.1,375.2L377.1,375.2z"></path> <path class="st26" d="M395.9,413.2L395.9,413.2c-1.2,6.6-7.6,10.9-14.2,9.7l-35.2-6.7c-6.6-1.2-10.9-7.6-9.7-14.2l0,0 c1.2-6.6,7.6-10.9,14.2-9.7l35.2,6.7C392.8,400.2,397.1,406.6,395.9,413.2L395.9,413.2z"></path> <path class="st26" d="M379.7,429.7L379.7,429.7c-5.1-4.4-5.6-12.1-1.2-17.1l23.5-27.1c4.4-5.1,12.1-5.6,17.1-1.2l0,0 c5.1,4.4,5.6,12.1,1.2,17.1l-23.5,27.1C392.5,433.5,384.8,434.1,379.7,429.7L379.7,429.7z"></path> <path class="st26" d="M451.2,401.8L451.2,401.8c2.7,6.1-0.1,13.3-6.2,16l-32.8,14.5c-6.1,2.7-13.3-0.1-16-6.2l0,0 c-2.7-6.1,0.1-13.3,6.2-16l32.8-14.5C441.3,392.9,448.5,395.7,451.2,401.8L451.2,401.8z"></path> <path class="st26" d="M443.8,431.1L443.8,431.1c-2.5,6.2-9.6,9.2-15.8,6.7l-33.2-13.4c-6.2-2.5-9.2-9.6-6.7-15.8h0 c2.5-6.2,9.6-9.2,15.8-6.7l33.2,13.4C443.3,417.8,446.3,424.9,443.8,431.1L443.8,431.1z"></path> <path class="st26" d="M387.8,503.2L387.8,503.2c-5.6,3.6-13.2,2-16.8-3.7l-19.4-30.2c-3.6-5.6-2-13.2,3.7-16.8h0 c5.6-3.6,13.2-2,16.8,3.7l19.4,30.2C395,492,393.4,499.5,387.8,503.2L387.8,503.2z"></path> <path class="st26" d="M432.7,467.1L432.7,467.1c-5.6,3.6-13.2,2-16.8-3.7l-19.4-30.2c-3.6-5.6-2-13.2,3.7-16.8h0 c5.6-3.6,13.2-2,16.8,3.7l19.4,30.2C439.9,456,438.3,463.5,432.7,467.1L432.7,467.1z"></path> <path class="st26" d="M403.3,412.9L403.3,412.9c4.7,4.8,4.5,12.5-0.3,17.2l-25.7,25c-4.8,4.7-12.5,4.5-17.2-0.3l0,0 c-4.7-4.8-4.5-12.5,0.3-17.2l25.7-25C390.9,408,398.6,408.1,403.3,412.9L403.3,412.9z"></path> <path class="st26" d="M436.1,495L436.1,495c-5.6,3.6-13.2,2-16.8-3.7l-19.4-30.2c-3.6-5.6-2-13.2,3.7-16.8v0 c5.6-3.6,13.2-2,16.8,3.7l19.4,30.2C443.4,483.8,441.7,491.4,436.1,495L436.1,495z"></path> <path class="st26" d="M405,466.3L405,466.3c-1.2,6.6-7.6,10.9-14.2,9.7l-35.2-6.7c-6.6-1.2-10.9-7.6-9.7-14.2l0,0 c1.2-6.6,7.6-10.9,14.2-9.7l35.2,6.7C401.9,453.3,406.2,459.7,405,466.3L405,466.3z"></path> <path class="st26" d="M460.9,426.1L460.9,426.1c4.1,5.3,3,13-2.3,17l-28.5,21.8c-5.3,4.1-13,3-17-2.3l0,0c-4.1-5.3-3-13,2.3-17 l28.5-21.8C449.1,419.8,456.8,420.8,460.9,426.1L460.9,426.1z"></path> <path class="st26" d="M465.2,467.9L465.2,467.9c-1.8,6.4-8.5,10.3-14.9,8.5l-34.6-9.5c-6.4-1.8-10.3-8.5-8.5-14.9v0 c1.8-6.4,8.5-10.3,14.9-8.5l34.6,9.5C463.1,454.7,466.9,461.5,465.2,467.9L465.2,467.9z"></path> <path class="st26" d="M428.5,457.8L428.5,457.8c-1,6.6-7.2,11.2-13.8,10.3l-35.5-5.2c-6.6-1-11.2-7.2-10.3-13.8l0,0 c1-6.6,7.2-11.2,13.8-10.3l35.5,5.2C424.9,445,429.5,451.2,428.5,457.8L428.5,457.8z"></path> <path class="st26" d="M369.6,453.2L369.6,453.2c-5.6,3.6-13.2,2-16.8-3.7l-19.4-30.2c-3.6-5.6-2-13.2,3.7-16.8l0,0 c5.6-3.6,13.2-2,16.8,3.7l19.4,30.2C376.8,442,375.2,449.6,369.6,453.2L369.6,453.2z"></path> <path class="st26" d="M399.7,494L399.7,494c-4.1-5.3-3-13,2.3-17l28.5-21.8c5.3-4.1,13-3,17,2.3l0,0c4.1,5.3,3,13-2.3,17 l-28.5,21.8C411.4,500.3,403.8,499.3,399.7,494L399.7,494z"></path> <path class="st26" d="M311.6,405.1L311.6,405.1c-5.7-3.5-7.4-11.1-3.9-16.7l19-30.4c3.5-5.7,11.1-7.4,16.7-3.9l0,0 c5.7,3.5,7.4,11.1,3.9,16.7l-19,30.4C324.8,406.9,317.2,408.6,311.6,405.1L311.6,405.1z"></path> <path class="st26" d="M375.6,446.4L375.6,446.4c-1.5,6.5-8.1,10.6-14.6,9l-34.9-8.2c-6.5-1.5-10.6-8.1-9-14.6h0 c1.5-6.5,8.1-10.6,14.6-9l34.9,8.2C373.1,433.3,377.2,439.9,375.6,446.4L375.6,446.4z"></path> </g> <g> <g> <defs> <rect id="SVGID_00000135692067253599745980000006030468236112884894_" x="280.3" y="121.3" width="227" height="393.5"></rect> </defs> <clipPath id="SVGID_00000170988169144712578690000010993448419037192609_"> <use xlink:href="#SVGID_00000135692067253599745980000006030468236112884894_" style="overflow:visible;"></use> </clipPath> <g style="clip-path:url(#SVGID_00000170988169144712578690000010993448419037192609_);"> <defs> <path id="SVGID_00000152959717144126077020000018215421639191909287_" d="M442.3,214.4c18.5,10.7,27.7,24.7,27.7,38.7v207 c0,14-9.2,28-27.7,38.7c-18.5,10.7-42.8,16-67.1,16c-24.3,0-48.5-5.3-67-16c-18.5-10.7-27.8-24.7-27.8-38.7v-207 c0-14,9.3-28,27.8-38.7c18.5-10.7,42.8-16,67-16C399.5,198.4,423.8,203.8,442.3,214.4L442.3,214.4z"></path> </defs> <clipPath id="SVGID_00000112615226459471594960000001704810867373613247_"> <use xlink:href="#SVGID_00000152959717144126077020000018215421639191909287_" style="overflow:visible;"></use> </clipPath> <linearGradient id="SVGID_00000145742173323418533630000016653014812864390813_" gradientUnits="userSpaceOnUse" x1="301.4821" y1="601.4805" x2="302.4557" y2="601.4805" gradientTransform="matrix(-153.8294 0 0 -266.7317 46845.4141 160790.5469)"> <stop offset="0" style="stop-color:#C98A42"></stop> <stop offset="1" style="stop-color:#FF9D00"></stop> </linearGradient> <rect x="280.3" y="198.4" style="clip-path:url(#SVGID_00000112615226459471594960000001704810867373613247_);fill:url(#SVGID_00000145742173323418533630000016653014812864390813_);" width="189.7" height="316.4"></rect> </g> </g> </g> <g class="st15"> <g> <g> <defs> <path id="SVGID_00000126314671693346446420000000444899833444345270_" d="M442.3,214.4c18.5,10.7,27.7,24.7,27.7,38.7v207 c0,14-9.2,28-27.7,38.7c-18.5,10.7-42.8,16-67.1,16c-24.3,0-48.5-5.3-67-16c-18.5-10.7-27.8-24.7-27.8-38.7v-207 c0-14,9.3-28,27.8-38.7c18.5-10.7,42.8-16,67-16C399.5,198.4,423.8,203.8,442.3,214.4L442.3,214.4z"></path> </defs> <clipPath id="SVGID_00000035510115562678797510000008207349263119844022_"> <use xlink:href="#SVGID_00000126314671693346446420000000444899833444345270_" style="overflow:visible;"></use> </clipPath> <linearGradient id="SVGID_00000036969238834409110820000009848911212791637389_" gradientUnits="userSpaceOnUse" x1="301.4821" y1="601.4805" x2="302.4557" y2="601.4805" gradientTransform="matrix(-153.8294 0 0 -266.7317 46845.4141 160790.5469)"> <stop offset="0" style="stop-color:#C98A42"></stop> <stop offset="1" style="stop-color:#FF9D00"></stop> </linearGradient> <rect x="280.3" y="198.4" style="clip-path:url(#SVGID_00000035510115562678797510000008207349263119844022_);fill:url(#SVGID_00000036969238834409110820000009848911212791637389_);" width="189.7" height="316.4"></rect> </g> </g> </g> </g> <g> <g> <defs> <path id="SVGID_00000023994229360556955730000008199056502494170518_" d="M375.2,333.2c-23,0-45.9-4.8-64-14.4 c-2.2-1.2-4.6-1.1-6.8,0.2c-2.1,1.3-3.3,3.4-3.3,5.9v138.3c0,5,2.5,9.3,6.8,11.9c19.6,11.5,44.8,16.2,67.3,16.2 c24.3,0,48.5-5.3,67-16c4.5-2.6,7.1-6.8,7.1-12V324.9c0-2.5-1.2-4.6-3.3-5.9c-2.1-1.3-4.6-1.3-6.8-0.2 C421.1,328.5,398.2,333.2,375.2,333.2L375.2,333.2z"></path> </defs> <clipPath id="SVGID_00000016777615138242245180000015855629625562814396_"> <use xlink:href="#SVGID_00000023994229360556955730000008199056502494170518_" style="overflow:visible;"></use> </clipPath> <linearGradient id="SVGID_00000061468689326804234930000001860247825379263416_" gradientUnits="userSpaceOnUse" x1="301.3425" y1="601.4847" x2="302.1387" y2="601.4847" gradientTransform="matrix(-211.8059 0 0 -134.2193 64367.832 81135.3594)"> <stop offset="0" style="stop-color:#94B8E2"></stop> <stop offset="1" style="stop-color:#FEFEFE"></stop> </linearGradient> <rect x="301.1" y="317.7" style="clip-path:url(#SVGID_00000016777615138242245180000015855629625562814396_);fill:url(#SVGID_00000061468689326804234930000001860247825379263416_);" width="148.2" height="173.6"></rect> </g> <g> <g> <path class="st21" d="M324,401.3C324,401.3,324,401.3,324,401.3c-1.4,0-2.6-1.2-2.6-2.6c0-7.9,0-15.9,0-23.8c0-0.2,0-0.4,0-0.6 c0-1.6,0-3.2,0-4.8l0-11.5c0-6,0-12,0-17.9c0-0.8,0.4-1.6,1.1-2.1c0.7-0.5,1.6-0.6,2.4-0.3c5.4,2,10.8,3.9,16.1,5.3 c10.1,2.6,18.1,12.8,18.1,23.1c0,5.5-2.2,10.4-6.1,13.5c-3.7,2.9-8.4,3.8-13.3,2.6c-4.6-1.1-9.1-2.6-13.2-4c0,6.8,0,13.6,0,20.4 C326.6,400.2,325.4,401.3,324,401.3z M326.6,372.9c4.4,1.5,9.4,3.2,14.4,4.4c3.3,0.8,6.5,0.2,8.9-1.7c2.6-2.1,4.2-5.5,4.2-9.4 c0-8.1-6.3-16-14.3-18.1c-4.4-1.2-8.8-2.6-13.2-4.2c0,4.7,0,9.5,0,14.2l0,11.4C326.6,370.6,326.6,371.7,326.6,372.9z"></path> </g> <g> <path class="st21" d="M374.4,425.5c-0.7,0-1.4-0.3-2-0.9c-11.8-13.7-23.9-28.4-35.9-43.7c-0.9-1.1-0.7-2.7,0.4-3.6 c1.1-0.9,2.7-0.7,3.6,0.4c12,15.3,24,29.9,35.8,43.5c0.9,1.1,0.8,2.7-0.3,3.6C375.6,425.3,375,425.5,374.4,425.5z"></path> </g> <g> <path class="st21" d="M346,421.4c-0.7,0-1.4-0.3-2-0.9c-0.9-1.1-0.8-2.7,0.3-3.6c9.7-8.3,19.1-17,28.2-25.7c1-1,2.7-1,3.7,0.1 c1,1,1,2.7-0.1,3.7c-9.1,8.8-18.7,17.5-28.4,25.9C347.2,421.2,346.6,421.4,346,421.4z"></path> </g> <g> <g> <path class="st21" d="M375.2,475.2c-19.3,0-38.6-3.5-54.4-9.8c-0.8-0.3-1.1-1.2-0.8-1.9c0.3-0.8,1.2-1.1,1.9-0.8 c15.4,6.2,34.4,9.6,53.3,9.6c19.2,0,37.6-3.3,53.3-9.6c0.8-0.3,1.6,0.1,1.9,0.8c0.3,0.8-0.1,1.6-0.8,1.9 C413.6,471.8,394.8,475.2,375.2,475.2z"></path> </g> <g> <path class="st21" d="M375.2,459.1c-19.3,0-38.6-3.5-54.4-9.8c-0.8-0.3-1.1-1.2-0.8-1.9c0.3-0.8,1.2-1.1,1.9-0.8 c15.4,6.2,34.4,9.6,53.3,9.6c19.2,0,37.6-3.3,53.3-9.6c0.8-0.3,1.6,0.1,1.9,0.8c0.3,0.8-0.1,1.6-0.8,1.9 C413.6,455.8,394.8,459.1,375.2,459.1z"></path> </g> <g> <path class="st21" d="M375.2,443.1c-19.3,0-38.6-3.5-54.4-9.8c-0.8-0.3-1.1-1.2-0.8-1.9c0.3-0.8,1.2-1.1,1.9-0.8 c15.4,6.2,34.4,9.6,53.3,9.6c19.2,0,37.6-3.3,53.3-9.6c0.8-0.3,1.6,0.1,1.9,0.8c0.3,0.8-0.1,1.6-0.8,1.9 C413.6,439.7,394.8,443.1,375.2,443.1z"></path> </g> </g> </g> </g> <g> <path class="st31" d="M451.7,172.6c21.1,12.2,31.6,28.2,31.6,44.1v30.7c0,15.9-10.5,31.9-31.6,44.1 c-21.1,12.2-48.8,18.3-76.5,18.3s-55.3-6.1-76.4-18.3c-21.1-12.2-31.7-28.2-31.7-44.1v-30.7c0-15.9,10.6-31.9,31.7-44.1 c21.1-12.2,48.7-18.3,76.4-18.3S430.6,160.4,451.7,172.6L451.7,172.6z"></path> <g> <g> <g> <defs> <path id="SVGID_00000154404342690127295910000014817527902702872503_" d="M375.2,267c-26.3,0-52.6-5.5-72.7-16.6 c-7.3-4-13.3-8.5-18-13.3c-8.1-8.3-12.2-17.5-12.2-26.7c0-14,9.5-28.1,28.5-39c-0.7,0.4-1.3,0.7-1.9,1.1 c-21.1,12.2-31.7,28.2-31.7,44.1c0,10.5,4.6,21.1,13.8,30.5c4.7,4.9,10.7,9.4,17.9,13.6c21.1,12.2,48.7,18.3,76.4,18.3 s55.4-6.1,76.5-18.3c7.2-4.1,13.1-8.7,17.8-13.5c9.2-9.5,13.8-20,13.8-30.5c0-15.9-10.5-31.9-31.6-44.1 c-0.7-0.4-1.4-0.8-2.1-1.2c19,10.9,28.5,25,28.5,39.1c0,9.2-4,18.4-12.1,26.7c-4.6,4.8-10.6,9.3-18,13.3 C427.9,261.5,401.5,267,375.2,267L375.2,267z"></path> </defs> <clipPath id="SVGID_00000083769288793454161970000002941088745809466276_"> <use xlink:href="#SVGID_00000154404342690127295910000014817527902702872503_" style="overflow:visible;"></use> </clipPath> <linearGradient id="SVGID_00000075848994242412467990000018388270478739551935_" gradientUnits="userSpaceOnUse" x1="300.2856" y1="601.2709" x2="301.7606" y2="601.2709" gradientTransform="matrix(193.2392 70.0201 -47.4147 130.8533 -29295.834 -99534.6172)"> <stop offset="0" style="stop-color:#FFFFFF"></stop> <stop offset="1" style="stop-color:#7BB6FF"></stop> </linearGradient> <polygon style="clip-path:url(#SVGID_00000083769288793454161970000002941088745809466276_);fill:url(#SVGID_00000075848994242412467990000018388270478739551935_);" points=" 232.6,266.5 458.2,348.3 517.8,183.9 292.2,102.1 "></polygon> </g> </g> </g> <g> <defs> <path id="SVGID_00000018199545186428702160000002049908827293118593_" d="M449.7,171.4c-20.8-11.4-47.7-17.1-74.5-17.1 c-26.8,0-53.6,5.7-74.5,17.2c-19,10.9-28.5,25-28.5,39c0,9.2,4.1,18.4,12.2,26.7c4.7,4.8,10.7,9.3,18,13.3 c20.1,11,46.4,16.6,72.7,16.6c26.3,0,52.7-5.5,72.8-16.6c7.3-4,13.3-8.5,18-13.3c8.1-8.3,12.1-17.5,12.1-26.7 C478.1,196.4,468.7,182.3,449.7,171.4L449.7,171.4z"></path> </defs> <clipPath id="SVGID_00000114752374438469519460000013522670873169172905_"> <use xlink:href="#SVGID_00000018199545186428702160000002049908827293118593_" style="overflow:visible;"></use> </clipPath> <linearGradient id="SVGID_00000153694629455233564070000004294080564894244280_" gradientUnits="userSpaceOnUse" x1="300.4178" y1="601.4391" x2="301.8343" y2="601.4391" gradientTransform="matrix(393.6897 147.5656 -111.4404 297.3114 -51327.8008 -223106.375)"> <stop offset="0" style="stop-color:#7BB6FF"></stop> <stop offset="1" style="stop-color:#FEFEFE"></stop> </linearGradient> <polygon style="clip-path:url(#SVGID_00000114752374438469519460000013522670873169172905_);fill:url(#SVGID_00000153694629455233564070000004294080564894244280_);" points=" 235.2,253.2 452.8,334.7 515.2,168.2 297.6,86.6 "></polygon> </g> <g> <g> <g> <defs> <path id="SVGID_00000177454457835085754130000015121124031682916257_" d="M478.9,234.3c-1.4,2.7-3,5.3-5,7.8 c-1.3,1.7-2.8,3.4-4.4,5c-0.7,0.8-1.5,1.5-2.3,2.3c-2.5,2.3-5.2,4.5-8.3,6.7c-2.3,1.6-4.7,3.1-7.2,4.6c-0.8,0.5-1.7,1-2.5,1.4 c-3.6,1.9-7.3,3.7-11.2,5.3c-4.1,1.7-8.4,3.2-12.8,4.5c-4.7,1.4-9.6,2.6-14.5,3.6c-5.4,1.1-10.9,1.9-16.5,2.5 c-6.2,0.6-12.5,0.9-18.8,0.9c-6.3,0-12.6-0.3-18.8-0.9c-5.6-0.6-11.1-1.4-16.5-2.5c-5-1-9.8-2.2-14.5-3.6 c-4.4-1.3-8.7-2.8-12.8-4.5c-3.9-1.6-7.7-3.4-11.3-5.3c-0.8-0.4-1.6-0.9-2.4-1.4c-2.6-1.5-5-3.1-7.3-4.7 c-3-2.1-5.8-4.4-8.3-6.7c-0.8-0.7-1.6-1.5-2.3-2.2c-1.6-1.7-3.1-3.3-4.4-5.1c-2-2.6-3.7-5.2-5-7.8c-2.7-5.3-4.2-10.7-4.4-16.2 v30.7c0.2,5.5,1.7,10.9,4.4,16.2c1.4,2.7,3,5.3,5,7.8c1.9,2.5,4.2,4.9,6.7,7.3c2.5,2.3,5.2,4.5,8.3,6.7 c2.3,1.6,4.7,3.2,7.3,4.7c0.8,0.5,1.6,0.9,2.4,1.4c3.6,1.9,7.3,3.7,11.3,5.3c4.1,1.7,8.4,3.2,12.8,4.5 c4.7,1.4,9.6,2.6,14.5,3.6c5.4,1.1,10.9,1.9,16.5,2.5c6.2,0.6,12.5,0.9,18.8,0.9c6.3,0,12.6-0.3,18.8-0.9 c5.6-0.6,11.1-1.4,16.5-2.5c5-1,9.8-2.2,14.5-3.6c4.4-1.3,8.7-2.8,12.8-4.5c3.9-1.6,7.7-3.4,11.2-5.3c0.9-0.5,1.7-0.9,2.5-1.4 c2.6-1.5,5-3,7.2-4.6c3-2.1,5.8-4.4,8.3-6.7c2.5-2.4,4.8-4.8,6.7-7.3c2-2.6,3.7-5.2,5-7.8c2.9-5.8,4.4-11.7,4.4-17.7v-30.7 C483.3,222.6,481.8,228.6,478.9,234.3L478.9,234.3z"></path> </defs> <clipPath id="SVGID_00000080171680202728076910000004963012406524675235_"> <use xlink:href="#SVGID_00000177454457835085754130000015121124031682916257_" style="overflow:visible;"></use> </clipPath> <linearGradient id="SVGID_00000078012685672717797590000012334268433881975939_" gradientUnits="userSpaceOnUse" x1="300.8727" y1="601.986" x2="302.3475" y2="601.986" gradientTransform="matrix(-388.381 0 0 -83.8477 117625.1719 50738.3281)"> <stop offset="0" style="stop-color:#7BB6FF"></stop> <stop offset="1" style="stop-color:#FEFEFE"></stop> </linearGradient> <rect x="267.1" y="216.6" style="clip-path:url(#SVGID_00000080171680202728076910000004963012406524675235_);fill:url(#SVGID_00000078012685672717797590000012334268433881975939_);" width="216.2" height="93.1"></rect> </g> </g> </g> <g> <defs> <path id="SVGID_00000108280258912951408940000017355059869163269281_" d="M467.2,280.2v-30.7c-2.5,2.3-5.2,4.5-8.3,6.7v30.7 C462,284.7,464.7,282.5,467.2,280.2L467.2,280.2z M449.1,292.9v-30.7c-3.6,1.9-7.3,3.7-11.2,5.3v30.7 C441.8,296.6,445.6,294.8,449.1,292.9z M425.1,272c-4.7,1.4-9.6,2.6-14.5,3.6v30.7c5-1,9.8-2.2,14.5-3.6V272z M394,278.1 c-6.2,0.6-12.5,0.9-18.8,0.9v30.7c6.3,0,12.6-0.3,18.8-0.9V278.1z M356.4,278.1c-5.6-0.6-11.1-1.4-16.5-2.5v30.7 c5.4,1.1,10.9,1.9,16.5,2.5V278.1z M325.3,272c-4.4-1.3-8.7-2.8-12.8-4.5v30.7c4.1,1.7,8.4,3.2,12.8,4.5V272z M301.2,292.8 v-30.7c-0.8-0.4-1.6-0.9-2.4-1.4c-2.6-1.5-5-3.1-7.3-4.7v30.7c2.3,1.6,4.7,3.2,7.3,4.7C299.6,291.9,300.4,292.4,301.2,292.8z M283.2,280.1v-30.7c-0.8-0.7-1.6-1.5-2.3-2.2c-1.6-1.7-3.1-3.3-4.4-5.1v30.7C278.4,275.3,280.7,277.8,283.2,280.1z M271.5,265 v-30.7c-2.7-5.3-4.2-10.7-4.4-16.2v30.7C267.3,254.3,268.8,259.7,271.5,265z M478.9,265v-30.7c-1.4,2.7-3,5.3-5,7.8v30.7 C475.9,270.3,477.5,267.7,478.9,265z"></path> </defs> <clipPath id="SVGID_00000168100645482621770080000002272917178953916601_"> <use xlink:href="#SVGID_00000108280258912951408940000017355059869163269281_" style="overflow:visible;"></use> </clipPath> <linearGradient id="SVGID_00000169559177795194610020000010505319802829130913_" gradientUnits="userSpaceOnUse" x1="300.9901" y1="601.9902" x2="302.4641" y2="601.9902" gradientTransform="matrix(-342.9598 0 0 -82.5676 103855.4844 49968.7812)"> <stop offset="0" style="stop-color:#7BB6FF"></stop> <stop offset="1" style="stop-color:#FEFEFE"></stop> </linearGradient> <rect x="267.1" y="218.1" style="clip-path:url(#SVGID_00000168100645482621770080000002272917178953916601_);fill:url(#SVGID_00000169559177795194610020000010505319802829130913_);" width="211.8" height="91.7"></rect> </g> <g> <defs> <path id="SVGID_00000061447216946557452240000012927637195366767512_" d="M445.5,173.6c-19.7-10.8-45-16.2-70.3-16.2 c-25.3,0-50.6,5.4-70.3,16.2C287,184,278,197.2,278,210.5c0,8.7,3.8,17.4,11.5,25.2c4.4,4.5,10.1,8.8,17,12.6 c19,10.4,43.8,15.6,68.7,15.6c24.9,0,49.8-5.2,68.8-15.7c6.9-3.8,12.6-8,17-12.5c7.7-7.9,11.5-16.5,11.5-25.2 C472.4,197.2,463.5,183.9,445.5,173.6L445.5,173.6z"></path> </defs> <clipPath id="SVGID_00000065758236583492479600000018046568243219909768_"> <use xlink:href="#SVGID_00000061447216946557452240000012927637195366767512_" style="overflow:visible;"></use> </clipPath> <linearGradient id="SVGID_00000026882491512050884070000000948728718397512840_" gradientUnits="userSpaceOnUse" x1="300.4075" y1="601.38" x2="301.8832" y2="601.38" gradientTransform="matrix(313.9582 114.2711 -75.9153 208.5762 -48582.1523 -159658.4844)"> <stop offset="0" style="stop-color:#7BB6FF"></stop> <stop offset="1" style="stop-color:#FEFEFE"></stop> </linearGradient> <polygon style="clip-path:url(#SVGID_00000065758236583492479600000018046568243219909768_);fill:url(#SVGID_00000026882491512050884070000000948728718397512840_);" points=" 243.8,251.4 449.6,326.4 506.6,169.9 300.7,94.9 "></polygon> </g> </g> </g> </svg> 